<?xml version="1.0" standalone="no"?><!DOCTYPE svg PUBLIC "-//W3C//DTD SVG 1.1//EN" "http://www.w3.org/Graphics/SVG/1.1/DTD/svg11.dtd"><svg t="1607853159273" class="icon" viewBox="0 0 1243 1024" version="1.1" xmlns="http://www.w3.org/2000/svg" p-id="10485" xmlns:xlink="http://www.w3.org/1999/xlink" width="38.84375" height="32"><defs><style type="text/css"></style></defs><path d="M1243.225397 614.196825c-1.828571 17.269841-17.67619 26.006349-31.085714 33.930159-12.596825 7.314286-25.193651 14.628571-37.587302 21.942857-20.114286 11.580952-40.228571 23.365079-60.342857 34.946032-25.193651 14.628571-50.184127 29.257143-75.377778 43.68254-27.631746 16.050794-55.466667 32.304762-83.301587 48.355555-27.834921 16.253968-55.669841 32.507937-83.707937 48.55873-25.6 15.034921-51.2 29.663492-76.8 44.698413-20.926984 12.190476-41.650794 24.177778-62.577778 36.368254-13.612698 7.92381-27.428571 15.847619-41.041269 23.771429-10.361905 5.892063-20.114286 11.987302-31.898413 15.441269-30.679365 8.736508-64.609524 5.892063-92.444445-10.15873-9.955556-5.892063-19.911111-11.580952-29.866666-17.269841-18.285714-10.565079-36.368254-20.926984-54.653968-31.492063-23.974603-13.815873-47.949206-27.631746-71.720635-41.447619-27.225397-15.644444-54.653968-31.492063-81.879365-47.136508-28.24127-16.253968-56.279365-32.507937-84.520635-48.761905C217.396825 753.980952 190.984127 738.742857 164.165079 723.301587l-68.063492-39.212698c-16.253968-9.346032-32.507937-18.692063-48.761904-28.24127-7.314286-4.266667-14.831746-8.533333-22.146032-13.003175C13.409524 636.342857 2.031746 625.574603 2.031746 611.149206c0 13.206349 0 26.412698-0.203175 39.822223 0 4.673016-0.406349 9.549206 0 14.425396 1.015873 12.8 10.971429 22.755556 21.536508 29.053969 6.501587 3.860317 13.003175 7.51746 19.707937 11.377777 17.066667 9.752381 33.930159 19.707937 50.996825 29.460318 24.584127 14.222222 48.965079 28.24127 73.549207 42.463492 29.053968 16.863492 58.311111 33.726984 87.568254 50.590476 30.47619 17.67619 60.749206 35.149206 91.225396 52.825397 29.053968 16.660317 57.701587 33.320635 86.755556 49.980952 24.177778 13.815873 47.949206 27.631746 72.126984 41.650794 16.253968 9.346032 32.507937 18.692063 48.761905 28.24127 9.346032 5.28254 18.692063 11.580952 29.053968 15.238095 31.898413 11.580952 69.485714 9.142857 98.946032-8.126984l33.523809-19.504762c20.72381-11.987302 41.244444-23.974603 61.76508-35.961905 26.819048-15.644444 53.638095-31.085714 80.660317-46.933333 30.069841-17.473016 60.139683-34.946032 90.006349-52.419048l90.209524-52.419047c26.819048-15.644444 53.84127-31.288889 80.863492-47.136508 20.926984-12.190476 41.853968-24.177778 62.780953-36.571429 11.580952-6.704762 23.161905-13.409524 34.539682-20.114286 3.453968-2.031746 7.111111-4.063492 10.361905-6.501587 8.736508-6.704762 15.644444-15.644444 15.847619-27.225397 0.203175-5.892063 0-11.580952 0-17.269841 0-11.580952 0-23.161905 0.203175-34.539682 0.609524 1.015873 0.406349 1.828571 0.406349 2.641269 0 0.406349 0-0.203175 0 0z" fill="#7A9EFD" p-id="10486"></path><path d="M1220.87619 580.469841c29.866667 17.269841 30.069841 45.511111 0.40635 62.780953l-542.273016 314.920635c-29.663492 17.269841-78.425397 17.269841-108.292064 0l-545.726984-314.920635c-29.866667-17.269841-30.069841-45.511111-0.406349-62.780953L566.857143 265.142857c29.663492-17.269841 78.425397-17.269841 108.292063 0l545.726984 315.326984z" fill="#E4ECF9" p-id="10487"></path><path d="M737.52381 17.269841c0.609524-0.203175 1.015873-0.406349 1.828571-0.609524 0.406349-0.203175 0.609524-0.203175 1.015873-0.406349 0.406349 0 0.609524-0.203175 1.015873-0.203174s0.812698-0.203175 1.219048-0.203175h2.641269c0.609524 0 1.219048 0.203175 1.828572 0.203175 0.203175 0 0.406349 0 0.406349 0.203174 0.609524 0.203175 0.812698 0.203175 1.219048 0.406349 0.203175 0 0.406349 0.203175 0.406349 0.203175 0.609524 0.203175 1.015873 0.609524 1.625397 0.609524l-26.006349-15.034921h-0.203175c-0.406349-0.203175-0.609524-0.406349-1.219048-0.609524h-0.203174c-0.203175 0-0.406349-0.203175-0.40635-0.203174-0.203175 0-0.406349-0.203175-0.609523-0.203175-0.203175 0-0.609524-0.203175-0.609524-0.203174-0.203175 0-0.406349 0-0.406349-0.203175h-0.203175c-0.609524 0-0.812698-0.203175-1.422222-0.203175h-3.250794c-0.203175 0-0.406349 0-0.609524 0.203175-0.406349 0-0.609524 0.203175-1.015873 0.203175-0.203175 0-0.406349 0-0.609523 0.203174-0.203175 0-0.406349 0.203175-0.609524 0.203175l-1.625397 0.609524c-0.203175 0-0.406349 0.203175-0.609524 0.203174-0.203175 0-0.203175 0.203175-0.406349 0.203175-1.015873 0.406349-2.031746 0.812698-3.047619 1.422222L288.101587 246.044444c-1.219048 0.609524-2.438095 1.625397-3.657143 2.438096l-0.609523 0.609523c-1.015873 0.812698-2.234921 2.031746-3.250794 3.04762-0.203175 0-0.203175 0.203175-0.406349 0.203174l-0.609524 0.609524c-0.609524 0.609524-1.015873 1.015873-1.625397 1.828571l-0.609524 0.609524c-0.203175 0.203175-0.406349 0.406349-0.406349 0.609524-0.406349 0.406349-0.609524 0.609524-0.812698 1.015873-0.203175 0.203175-0.406349 0.609524-0.609524 0.609524l-0.609524 0.609524c-0.203175 0.406349-0.609524 0.609524-0.609524 0.812698l-0.609524 0.609524c-0.203175 0.406349-0.609524 0.609524-0.609523 1.015873-0.203175 0.203175-0.406349 0.609524-0.609524 0.609524 0 0.203175-0.203175 0.203175-0.203175 0.406349-0.406349 0.609524-0.812698 1.422222-1.219047 2.031746v0.203175c0 0.203175-0.203175 0.406349-0.203175 0.406349-0.406349 0.609524-0.609524 1.015873-0.812698 1.422222-0.203175 0.203175-0.203175 0.609524-0.40635 0.609524-0.203175 0.203175-0.203175 0.609524-0.406349 0.609524-0.203175 0.203175-0.203175 0.406349-0.406349 0.609523-0.203175 0.609524-0.609524 1.015873-0.609524 1.625397 0 0.203175-0.203175 0.203175-0.203174 0.406349v0.203175c-0.406349 0.609524-0.609524 1.422222-0.812699 2.031746 0 0.203175 0 0.203175-0.203174 0.406349s-0.203175 0.609524-0.40635 0.609524c-0.203175 0.406349-0.406349 0.609524-0.406349 1.015873-0.203175 0.406349-0.203175 0.609524-0.203174 0.812698-0.203175 0.406349-0.203175 0.609524-0.40635 1.015874 0 0.203175-0.203175 0.406349-0.203174 0.609523-0.203175 0.406349-0.203175 0.609524-0.203175 1.015873-0.203175 0.406349-0.203175 0.812698-0.406349 1.219048 0 0.203175 0 0.406349-0.203175 0.609524 0 0.406349-0.203175 0.609524-0.203174 0.812698-0.203175 0.609524-0.203175 1.219048-0.406349 2.031746 0 0.203175 0 0.406349-0.203175 0.609524v0.609524c-0.203175 1.422222-0.406349 2.844444-0.406349 4.266666l0.812698 339.911112c0 7.51746 2.64127 12.8 7.111111 15.238095l26.006349 15.03492c-4.266667-2.438095-7.111111-7.720635-7.111111-15.238095l0.40635-340.114285c0-1.422222 0.203175-2.844444 0.406349-4.266667 0-0.406349 0-0.609524 0.203174-1.015873 0.203175-0.609524 0.203175-1.219048 0.40635-2.031746 0-0.406349 0.203175-0.812698 0.203174-1.422222 0.203175-0.406349 0.203175-0.812698 0.406349-1.219048 0.203175-0.609524 0.406349-1.015873 0.609524-1.828571 0.203175-0.406349 0.203175-0.609524 0.406349-1.015873 0.203175-0.609524 0.406349-1.219048 0.609524-2.031747 0.203175-0.203175 0.203175-0.609524 0.406349-0.609523l1.015873-2.64127c0-0.203175 0.203175-0.203175 0.203175-0.406349 0.406349-0.609524 0.609524-1.625397 1.015873-2.234921 0.203175-0.203175 0.203175-0.609524 0.406349-0.609524 0.406349-0.609524 0.609524-1.422222 1.219048-2.031746 0-0.203175 0.203175-0.406349 0.203174-0.406349 0.609524-0.812698 1.015873-1.625397 1.625397-2.438095 0.203175-0.203175 0.406349-0.609524 0.609524-0.609524 0.406349-0.609524 0.609524-1.219048 1.219048-1.828572 0.203175-0.406349 0.609524-0.609524 0.609524-0.812698 0.406349-0.609524 0.609524-0.812698 1.015873-1.422222 0.406349-0.406349 0.609524-0.609524 0.812698-1.219048 0.406349-0.406349 0.609524-0.609524 0.812698-1.015873 0.609524-0.609524 1.015873-1.219048 1.625397-1.828571 0.203175-0.406349 0.609524-0.609524 0.609524-0.609524 1.015873-1.015873 2.031746-2.031746 3.250794-3.047619l0.609523-0.609524c1.219048-0.812698 2.438095-1.828571 3.657143-2.438095L734.069841 18.488889c1.015873-0.609524 2.031746-1.015873 3.047619-1.422222-0.203175 0.406349 0.203175 0.203175 0.40635 0.203174z m0 0" fill="#2A2ABC" p-id="10488"></path><path d="M733.663492 19.098413c13.206349-7.51746 23.974603-1.422222 23.974603 13.612698l0.812699 339.911111c0 15.034921-10.768254 33.52381-23.771429 41.04127l-142.628571 82.488889-52.622223 30.88254-28.444444 16.457142-53.028571 30.069842-142.425397 82.285714c-13.206349 7.51746-23.974603 1.422222-23.974603-13.612698l-1.015873-339.911111c0-15.034921 10.768254-33.52381 23.771428-41.04127L733.663492 19.098413z m0 0" fill="#4040FF" p-id="10489"></path><path d="M649.955556 163.75873c8.939683-5.079365 16.253968-1.015873 16.253968 9.346032 0 10.15873-7.111111 22.755556-16.253968 28.038095l-277.739683 160.507937c-8.939683 5.079365-16.253968 1.015873-16.253968-9.346032s7.111111-22.755556 16.253968-28.038095l277.739683-160.507937z m0 0M518.907937 354.946032c8.939683-5.079365 16.253968-1.015873 16.253968 9.346031s-7.111111 22.755556-16.253968 28.038096l-146.895239 84.926984c-8.939683 5.079365-16.253968 1.015873-16.253968-9.346032 0-10.15873 7.111111-22.755556 16.253968-28.038095l146.895239-84.926984z m0 0" fill="#2828CE" p-id="10490"></path><path d="M675.555556 185.701587c0.406349-0.203175 0.609524-0.406349 1.015873-0.406349 0.203175 0 0.609524-0.203175 0.609523-0.203175 0.203175 0 0.609524-0.203175 0.609524-0.203174 0.406349 0 0.609524-0.203175 0.812699-0.203175h1.828571c0.406349 0 0.812698 0 1.219048 0.203175h0.406349c0.406349 0 0.609524 0.203175 0.812698 0.203174 0.203175 0 0.203175 0 0.406349 0.203175l1.015873 0.609524-18.895238-10.971429h-0.203174c-0.406349-0.203175-0.609524-0.406349-0.812699-0.406349h-0.203174c-0.203175 0-0.203175 0-0.406349-0.203174-0.203175 0-0.406349-0.203175-0.40635-0.203175-0.203175 0-0.406349 0-0.609523-0.203175h-0.609524c-0.406349 0-0.609524-0.203175-1.015873-0.203174h-2.64127c-0.203175 0-0.406349 0-0.609524 0.203174h-0.406349c-0.203175 0-0.203175 0.203175-0.406349 0.203175-0.406349 0.203175-0.609524 0.203175-1.015873 0.406349-0.203175 0-0.406349 0-0.40635 0.203175 0 0-0.203175 0-0.203174 0.203174-0.609524 0.406349-1.422222 0.609524-2.031746 1.015873l-277.739683 160.507937c-1.015873 0.609524-2.031746 1.422222-3.047619 2.031746-0.406349 0.203175-0.609524 0.609524-0.812698 0.812698-0.609524 0.406349-0.812698 0.812698-1.422222 1.219048-0.203175 0.203175-0.406349 0.609524-0.609524 0.609524l-0.609524 0.609524-0.609524 0.609523c-0.609524 0.609524-0.812698 1.015873-1.422222 1.625397l-0.609524 0.609524c0 0.203175-0.203175 0.203175-0.203174 0.406349-0.203175 0.203175-0.406349 0.406349-0.40635 0.609524-0.406349 0.609524-0.609524 0.812698-0.812698 1.422222-0.406349 0.609524-0.609524 0.812698-0.812699 1.422222v0.40635c-0.203175 0.406349-0.609524 0.609524-0.609523 1.219047-0.203175 0.609524-0.609524 0.812698-0.609524 1.422222l-0.609524 1.219048v0.406349c-0.203175 0.609524-0.406349 1.015873-0.609524 1.422223l-0.609524 1.625396c0 0.203175-0.203175 0.609524-0.203174 0.609524 0 0.203175 0 0.203175-0.203175 0.406349 0 0.203175-0.203175 0.406349-0.203174 0.609524-0.203175 0.609524-0.406349 1.219048-0.609524 2.031746 0 0.406349-0.203175 0.609524-0.203175 1.015873 0 0.203175 0 0.406349-0.203174 0.609524 0 0.203175 0 0.406349-0.203175 0.609524-0.203175 1.015873-0.203175 2.031746-0.203175 3.250794 0 5.079365 1.828571 8.736508 4.673016 10.361904l18.895238 10.971429c-3.047619-1.828571-4.673016-5.28254-4.673015-10.361905 0-1.219048 0.203175-2.438095 0.406349-3.657143 0-0.203175 0-0.406349 0.203174-0.609524 0.203175-1.219048 0.609524-2.234921 0.812699-3.453968 0-0.203175 0-0.203175 0.203174-0.406349 0.406349-1.219048 0.812698-2.64127 1.422223-3.860318v-0.203174c0.609524-1.219048 1.219048-2.64127 2.031746-3.860318v-0.203174c0.609524-1.219048 1.422222-2.234921 2.23492-3.453968 0-0.203175 0.203175-0.203175 0.203175-0.40635 0.609524-1.015873 1.625397-2.031746 2.438095-2.844444l0.609524-0.609524c0.609524-0.609524 1.422222-1.219048 2.031746-2.031746l0.812698-0.812698c1.015873-0.609524 2.031746-1.625397 3.047619-2.031746l277.739683-160.507937 2.031746-1.015873c0.812698-0.406349 1.015873-0.609524 1.219048-0.609524z m0 0" fill="#ACC5EA" p-id="10491"></path><path d="M672.914286 186.920635c8.939683-5.079365 16.253968-1.015873 16.253968 9.346032 0 10.15873-7.111111 22.755556-16.253968 28.038095l-277.739683 160.507936c-8.939683 5.079365-16.253968 1.015873-16.253968-9.346031s7.111111-22.755556 16.253968-28.038096l277.739683-160.507936z m0 0" fill="#FFFFFF" p-id="10492"></path><path d="M544.507937 375.669841c0.406349-0.203175 0.609524-0.406349 1.015873-0.406349 0.203175 0 0.609524-0.203175 0.609523-0.203175 0.203175 0 0.609524-0.203175 0.609524-0.203174 0.406349 0 0.609524-0.203175 0.812699-0.203175h1.828571c0.406349 0 0.812698 0 1.219048 0.203175h0.406349c0.406349 0 0.609524 0.203175 0.812698 0.203174 0.203175 0 0.203175 0 0.406349 0.203175l1.015873 0.609524-18.895238-10.971429c-0.406349-0.203175-0.609524-0.406349-0.812698-0.406349h-0.203175c-0.203175 0-0.203175 0-0.406349-0.203175-0.203175 0-0.406349-0.203175-0.406349-0.203174-0.203175 0-0.406349 0-0.609524-0.203175h-0.609524c-0.406349 0-0.609524-0.203175-1.015873-0.203174h-2.64127c-0.203175 0-0.609524 0.203175-0.609523 0.203174h-0.40635c-0.203175 0-0.203175 0-0.406349 0.203175-0.406349 0.203175-0.609524 0.203175-1.015873 0.406349-0.203175 0-0.406349 0-0.406349 0.203175 0 0-0.203175 0-0.203175 0.203174-0.609524 0.406349-1.422222 0.609524-2.031746 1.015873l-146.895238 84.926984c-1.015873 0.609524-2.031746 1.422222-3.047619 2.031746-0.406349 0.203175-0.609524 0.609524-0.812698 0.812699-0.609524 0.406349-0.812698 0.812698-1.422222 1.219048-0.203175 0.203175-0.406349 0.609524-0.609524 0.609523l-0.609524 0.609524-0.609524 0.609524c-0.609524 0.609524-0.812698 1.015873-1.422222 1.625397l-0.609524 0.609524c0 0.203175-0.203175 0.203175-0.203174 0.406349-0.203175 0.203175-0.406349 0.406349-0.40635 0.609524-0.406349 0.609524-0.609524 0.812698-0.812698 1.422222-0.406349 0.609524-0.609524 0.812698-0.812699 1.422222v0.406349c-0.203175 0.406349-0.406349 0.609524-0.609523 1.219048-0.203175 0.609524-0.609524 0.812698-0.609524 1.422222l-0.609524 1.219048v0.203174c-0.203175 0.609524-0.406349 1.015873-0.609524 1.422223l-0.609524 1.625396c0 0.203175-0.203175 0.609524-0.203174 0.609524 0 0.203175 0 0.203175-0.203175 0.406349 0 0.203175-0.203175 0.406349-0.203174 0.609524-0.203175 0.609524-0.406349 1.219048-0.609524 2.031746 0 0.406349-0.203175 0.609524-0.203175 1.015873 0 0.203175 0 0.406349-0.203174 0.609524 0 0.203175 0 0.406349-0.203175 0.609524-0.203175 1.015873-0.203175 2.031746-0.203175 3.250793 0 5.079365 1.828571 8.736508 4.673016 10.361905l18.895238 10.971429c-3.047619-1.828571-4.673016-5.28254-4.673015-10.361905 0-1.219048 0.203175-2.438095 0.406349-3.657143 0-0.203175 0-0.406349 0.203174-0.609524 0.203175-1.219048 0.609524-2.234921 0.812699-3.453968 0-0.203175 0-0.203175 0.203174-0.406349 0.406349-1.219048 0.812698-2.64127 1.422223-3.860318 0.609524-1.219048 1.219048-2.64127 2.031746-3.860317v-0.203175c0.609524-1.219048 1.422222-2.234921 2.23492-3.453968 0-0.203175 0.203175-0.203175 0.203175-0.406349 0.609524-1.015873 1.625397-2.031746 2.438095-2.844444l0.609524-0.609524c0.609524-0.609524 1.422222-1.219048 2.031746-2.031746l0.812698-0.812699c1.015873-0.609524 2.031746-1.625397 3.047619-2.031746l146.895238-84.926984c0.609524-0.406349 1.422222-0.609524 2.031746-1.015873 0.609524-0.406349 0.812698-0.609524 1.015874-0.609524z m0 0" fill="#ACC5EA" p-id="10493"></path><path d="M541.866667 376.888889c8.939683-5.079365 16.253968-1.015873 16.253968 9.346032s-7.111111 22.755556-16.253968 28.038095l-146.895238 84.926984c-8.939683 5.079365-16.253968 1.015873-16.253969-9.346032 0-10.15873 7.111111-22.755556 16.253969-28.038095l146.895238-84.926984z m0 0" fill="#FFFFFF" p-id="10494"></path><path d="M900.266667 389.688889c-0.609524-0.406349-0.812698-0.609524-1.422223-0.609524h-0.203174c-0.203175 0-0.406349-0.203175-0.406349-0.203175-0.203175 0-0.406349-0.203175-0.609524-0.203174-0.203175 0-0.609524-0.203175-0.609524-0.203175-0.203175 0-0.406349 0-0.406349-0.203174h-0.203175c-0.609524 0-0.812698-0.203175-1.422222-0.203175h-3.250794c-0.203175 0-0.406349 0-0.609523 0.203175-0.406349 0-0.609524 0.203175-1.015873 0.203174-0.203175 0-0.406349 0-0.609524 0.203175-0.203175 0-0.406349 0.203175-0.609524 0.203174l-1.625397 0.609524c-0.203175 0-0.406349 0.203175-0.609524 0.203175-0.203175 0-0.203175 0.203175-0.406349 0.203174-1.015873 0.406349-2.031746 0.812698-3.047619 1.422223l-204.8 118.247619c-1.219048 0.609524-2.438095 1.625397-3.657143 2.438095l-0.609524 0.609524c-1.015873 0.812698-2.234921 2.031746-3.250793 3.047619-0.203175 0-0.203175 0.203175-0.40635 0.203174l-0.609523 0.609524c-0.609524 0.609524-1.015873 1.015873-1.625397 1.828572l-0.609524 0.609524c-0.203175 0.203175-0.406349 0.406349-0.406349 0.609523-0.406349 0.406349-0.609524 0.609524-0.812699 1.015873-0.203175 0.203175-0.406349 0.609524-0.609523 0.609524l-0.609524 0.609524c-0.203175 0.406349-0.609524 0.609524-0.609524 0.812698l-0.609524 0.609524c-0.203175 0.406349-0.609524 0.609524-0.609524 1.015873-0.203175 0.203175-0.406349 0.609524-0.609523 0.609524 0 0.203175-0.203175 0.203175-0.203175 0.406349-0.406349 0.609524-0.812698 1.422222-1.219048 2.031746v0.203175c0 0.203175-0.203175 0.406349-0.203174 0.406349-0.406349 0.609524-0.609524 1.015873-0.812699 1.422222-0.203175 0.203175-0.203175 0.609524-0.406349 0.609524-0.203175 0.203175-0.203175 0.609524-0.406349 0.609524-0.203175 0.203175-0.203175 0.406349-0.406349 0.609524-0.203175 0.609524-0.609524 1.015873-0.609524 1.625397 0 0.203175-0.203175 0.203175-0.203175 0.406349v0.203174c-0.406349 0.609524-0.609524 1.422222-0.812698 2.031746 0 0.203175 0 0.203175-0.203175 0.40635s-0.203175 0.609524-0.406349 0.609523c-0.203175 0.406349-0.406349 0.609524-0.406349 1.015873-0.203175 0.406349-0.203175 0.609524-0.203175 0.812699-0.203175 0.406349-0.203175 0.609524-0.406349 1.015873 0 0.203175-0.203175 0.406349-0.203175 0.609524-0.203175 0.406349-0.203175 0.609524-0.203174 1.015873-0.203175 0.406349-0.203175 0.812698-0.406349 1.219047 0 0.203175 0 0.406349-0.203175 0.609524 0 0.406349-0.203175 0.609524-0.203175 0.812698-0.203175 0.609524-0.203175 1.219048-0.406349 2.031747 0 0.203175 0 0.406349-0.203174 0.609523v0.609524c-0.203175 1.422222-0.406349 2.844444-0.40635 4.266667l0.609524 234.869841c0 4.673016 1.015873 8.533333 2.844445 11.174603 1.015873 1.828571 2.438095 3.047619 4.063492 3.860318l26.006349 15.03492c-4.266667-2.438095-7.111111-7.720635-7.111111-15.238095l-16.457143-9.549206 16.457143 9.549206 0.609524-234.869841c0-1.422222 0.203175-2.844444 0.406349-4.266667 0-0.406349 0-0.609524 0.203174-1.015873 0.203175-0.609524 0.203175-1.219048 0.40635-1.828571 0-0.406349 0.203175-0.812698 0.203174-1.219048 0.203175-0.406349 0.203175-0.812698 0.406349-1.219048 0.203175-0.609524 0.406349-1.015873 0.609524-1.828571 0.203175-0.406349 0.203175-0.609524 0.406349-1.015873 0.203175-0.609524 0.406349-1.219048 0.609524-2.031746 0.203175-0.203175 0.203175-0.609524 0.406349-0.609524l1.015874-2.64127c0-0.203175 0.203175-0.203175 0.203174-0.406349 0.406349-0.609524 0.609524-1.625397 1.015873-2.23492 0.203175-0.203175 0.203175-0.609524 0.406349-0.609524 0.406349-0.609524 0.609524-1.422222 1.219048-2.031746 0-0.203175 0.203175-0.406349 0.203175-0.40635 0.609524-0.812698 1.015873-1.625397 1.625396-2.438095 0.203175-0.203175 0.406349-0.609524 0.609524-0.609524 0.406349-0.609524 0.609524-1.015873 1.219048-1.828571 0.203175-0.406349 0.609524-0.609524 0.609524-0.812698 0.406349-0.609524 0.609524-0.812698 1.015873-1.422223 0.406349-0.406349 0.609524-0.609524 0.812698-1.015873 0.406349-0.406349 0.609524-0.609524 0.812698-1.015873 0.609524-0.609524 1.015873-1.015873 1.625397-1.828571 0.203175-0.406349 0.609524-0.609524 0.812699-0.812699 1.015873-1.015873 2.031746-2.031746 3.250793-3.047619l0.609524-0.609523c1.219048-0.812698 2.438095-1.828571 3.657143-2.438096l204.393651-118.044444c1.015873-0.609524 2.031746-1.015873 3.047619-1.422222 0.406349-0.203175 0.609524-0.203175 0.812698-0.406349 0.609524-0.203175 1.015873-0.406349 1.828572-0.609524 0.406349-0.203175 0.609524-0.203175 1.015873-0.406349 0.406349 0 0.609524-0.203175 1.015873-0.203175s0.812698-0.203175 1.219047-0.203175h2.64127c0.609524 0 1.219048 0.203175 1.828572 0.203175 0.203175 0 0.406349 0 0.406349 0.203175 0.609524 0.203175 0.812698 0.203175 1.219047 0.406349 0.203175 0 0.406349 0.203175 0.40635 0.203174 0.609524 0.203175 1.015873 0.609524 1.625396 0.609524l-26.209523-15.238095z m0 0" fill="#C68620" p-id="10495"></path><path d="M909.409524 406.349206c13.206349-7.51746 23.974603-1.422222 23.974603 13.612699l0.609524 234.869841c0 15.034921-10.768254 33.52381-23.771429 41.04127l-204.393651 118.044444c-13.206349 7.51746-23.974603 1.422222-23.974603-13.612698l-0.609524-234.869841c0-15.034921 10.768254-33.52381 23.771429-41.04127L909.409524 406.349206z m0 0" fill="#FFCD2E" p-id="10496"></path><path d="M745.853968 598.552381l0.406349 75.377778-9.142857 5.282539-30.47619-35.555555 0.203174 52.825397-9.955555 5.892063-0.203175-75.377778 9.142857-5.282539 30.476191 35.555555-0.203175-52.825397 9.752381-5.892063z m150.552381-86.755556l-16.863492 85.130159-8.533333 4.876191-13.612699-44.901588-13.003174 60.342857-8.533334 5.079366-17.473015-65.422223 10.565079-6.095238 11.377778 47.339683 13.003174-61.35873 8.126984-4.673016 13.409524 46.120635 11.174603-60.342858 10.361905-6.095238z m-87.771428 50.793651v10.15873l-31.898413 18.488889 0.203175 21.942857 27.225396-15.847619v10.15873l-27.225396 15.84762v22.55238l31.898412-18.285714v10.15873l-41.853968 23.974604-0.203175-75.174604 41.853969-23.974603z m0 0" fill="#C68620" p-id="10497"></path><path d="M759.873016 675.961905l-18.895238-10.971429-0.203175-52.825397 18.895238 10.971429 0.203175 52.825397z m0 0" fill="#E8CFAC" p-id="10498"></path><path d="M759.669841 623.136508l-18.895238-10.971429 9.955556-5.688889 18.895238 10.971429-9.955556 5.688889z m1.015873 74.768254l-18.895238-10.971429-30.47619-35.555555 18.895238 10.971428 30.47619 35.555556z m-40.431746-52.012699l-18.895238-10.971428 9.142857-5.28254 18.895238 10.971429-9.142857 5.282539z m0 0" fill="#E8CFAC" p-id="10499"></path><path d="M720.457143 721.066667l-18.895238-10.971429-0.203175-75.174603 18.895238 10.971428 0.203175 75.174604z m0 0" fill="#E8CFAC" p-id="10500"></path><path d="M769.422222 617.447619l0.406349 75.174603-9.142857 5.28254-30.47619-35.555556 0.203174 53.028572-9.955555 5.688889-0.203175-75.174604 9.142857-5.282539 30.476191 35.352381-0.203175-52.622222 9.752381-5.892064z m0 0" fill="#FFFFFF" p-id="10501"></path><path d="M898.234921 596.926984l-18.895238-10.971428 11.174603-60.546032 18.895238 10.971428-11.174603 60.546032z m11.377777-60.139682l-18.895238-10.971429 10.56508-6.095238 18.895238 10.971428-10.56508 6.095239z m0 0" fill="#E8CFAC" p-id="10502"></path><path d="M894.374603 620.698413l-18.895238-10.971429-13.409524-44.901587 18.895238 11.174603 13.409524 44.698413z m0 0" fill="#E8CFAC" p-id="10503"></path><path d="M863.898413 616.838095l-18.895238-10.971428 13.003174-61.35873 18.895238 10.971428-13.003174 61.35873z m13.003174-61.35873l-18.895238-10.971428 7.92381-4.469842 18.895238 10.971429-7.92381 4.469841z m-34.946031 20.31746l-18.895239-11.174603 10.56508-5.892063 18.895238 10.971428-10.565079 6.095238z m0 0" fill="#E8CFAC" p-id="10504"></path><path d="M859.225397 641.219048l-18.895238-10.971429L822.857143 564.825397l18.895238 11.174603 17.473016 65.219048z m0 0" fill="#E8CFAC" p-id="10505"></path><path d="M919.974603 530.692063l-16.863492 85.130159-8.533333 5.079365-13.612699-44.901587-13.003174 60.342857-8.533334 5.079365-17.473015-65.422222 10.565079-6.095238 11.377778 47.339682 13.003174-61.35873 8.126984-4.673016 13.409524 46.120635 11.174603-60.342857 10.361905-6.298413z m0 0" fill="#FFFFFF" p-id="10506"></path><path d="M800.507937 664.584127l-18.895239-10.971429 31.898413-18.488888 18.895238 10.971428-31.898412 18.488889z m0-32.507937l-18.895239-10.971428 27.225397-15.644445 18.895238 10.971429-27.225396 15.644444z m0 0" fill="#E8CFAC" p-id="10507"></path><path d="M790.552381 680.634921l-18.895238-10.971429-0.203175-75.377778 18.895238 11.174603 0.203175 75.174604z m0 0" fill="#E8CFAC" p-id="10508"></path><path d="M790.146032 605.460317l-18.895238-11.174603 41.853968-23.974603 18.895238 10.971429-41.853968 24.177777z m0 0" fill="#E8CFAC" p-id="10509"></path><path d="M832.203175 581.485714v10.15873l-31.898413 18.488889 0.203175 21.942857 27.022222-15.847619 0.203174 10.158731L800.507937 642.031746v22.755556l31.898412-18.488889v10.361904L790.552381 680.634921l-0.406349-75.174604 42.057143-23.974603z m0 0" fill="#FFFFFF" p-id="10510"></path></svg>